<svg xmlns="http://www.w3.org/2000/svg" width="48" height="48" viewBox="0 0 48 48">
  <g id="그룹_193" data-name="그룹 193" transform="translate(2717 -8849)">
    <g id="그룹_188" data-name="그룹 188">
      <rect id="사각형_666" data-name="사각형 666" width="42" height="42" rx="3" transform="translate(-2714 8852)" fill="rgba(142,245,248,0.85)"/>
      <path id="패스_2048" data-name="패스 2048" d="M389.507,567.093a23.991,23.991,0,0,1-1.614,1.85l-.315-.221a35.958,35.958,0,0,0,3.585-6.291,47.933,47.933,0,0,0,2.483-6.331l1.5.57q.967.408.662.636a3.927,3.927,0,0,1-1.1.24q-.495,1.161-1.125,2.546-.735,1.614-1.318,2.69.911.41.775.664c-.073.131-.309.2-.7.208l.22,15.485.036.476a2.32,2.32,0,0,1-.015.9c-.074.133-.307.24-.7.319-.322.062-.52.056-.594-.019a1.191,1.191,0,0,1-.038-.532l.021-.56-.207-14.647Q390.033,566.441,389.507,567.093Zm12.179-10.123c-.13.133-.5.193-1.1.184q-.551,1.13-.907,1.9c-.328.681-.65,1.292-.963,1.841l10.652-.152,1.34-1.256,1.6,1.131c.247.167.324.294.23.39a.807.807,0,0,1-.562.15l-7.942.111c.435.163.628.311.571.443-.075.131-.364.231-.873.292l.068,4.61,5.086-.071,1.171-1.2,1.627,1.1c.247.167.324.3.23.394a.822.822,0,0,1-.56.144l-7.548.109.068,4.776,5.144-.073,1.2-1.252,1.657,1.13c.245.163.324.3.23.39a.822.822,0,0,1-.562.146l-7.659.111.1,7.139.008.42a.887.887,0,0,1,0,.45.955.955,0,0,1-.473.4c-.413.122-.678.114-.792-.015-.077-.073-.109-.27-.092-.59l.025-.139-.266-18.692-3.928.054a35.654,35.654,0,0,1-2.075,3.1,32.583,32.583,0,0,1-2.586,3.043l-.315-.191a44.172,44.172,0,0,0,5.915-11.415l1.7.6Q401.854,556.771,401.686,556.97Z" transform="translate(-3093.479 8304.22)" fill="#fff" stroke="#fff" stroke-width="1"/>
    </g>
    <rect id="사각형_669" data-name="사각형 669" width="48" height="48" transform="translate(-2717 8849)" fill="none"/>
  </g>
</svg>
