<svg xmlns="http://www.w3.org/2000/svg" width="48" height="48" viewBox="0 0 48 48">
  <g id="그룹_192" data-name="그룹 192" transform="translate(2717 -8949)">
    <g id="그룹_189" data-name="그룹 189">
      <g id="그룹_187" data-name="그룹 187">
        <rect id="사각형_667" data-name="사각형 667" width="42" height="42" rx="3" transform="translate(-2714 8952)" fill="rgba(142,245,248,0.85)"/>
        <path id="패스_2049" data-name="패스 2049" d="M21.5,2.624V19.9q0,.616-.028,1.344t-.112,1.47q-.084.742-.21,1.344a3.519,3.519,0,0,1-.336.98.606.606,0,0,1-.518.378q-.616,0-.616-3.472V3.156a1.192,1.192,0,0,0-.518-.924,5.747,5.747,0,0,0-1.554-.812,4.273,4.273,0,0,1-.378-.21A.282.282,0,0,1,17.08.972q0-.14.21-.308A1,1,0,0,1,17.92.5q.2,0,.728.056t1.134.154q.6.1,1.134.21a3.5,3.5,0,0,1,.7.2ZM2.3,18.724a.834.834,0,0,1-.448.182.558.558,0,0,1-.364-.084.291.291,0,0,1-.126-.28.776.776,0,0,1,.266-.434,29.878,29.878,0,0,0,2.352-2.534,32.461,32.461,0,0,0,2.17-2.926A30.758,30.758,0,0,0,7.91,9.61,16.27,16.27,0,0,0,9.072,6.684a1,1,0,0,0,.084-.28,1.718,1.718,0,0,0,.028-.224q.028-.224-.406-.616a3.587,3.587,0,0,0-1.3-.672q-.5-.168-.448-.476a.355.355,0,0,1,.2-.294A.975.975,0,0,1,7.756,4a5.118,5.118,0,0,1,.952.126q.616.126,1.246.308t1.148.378a2.69,2.69,0,0,1,.686.336q-.028.14-.1.392t-.154.532q-.308.98-.756,2.044a18.016,18.016,0,0,1-1.092,2.156q.252.252.644.658l.812.84q.42.434.8.812a6.19,6.19,0,0,0,.6.546q.224.168.476.336a2.372,2.372,0,0,0,.476.252,3.051,3.051,0,0,1,.476.21,1.013,1.013,0,0,1,.308.294,15.147,15.147,0,0,1,1.008,1.624,4.693,4.693,0,0,1,.476,1.6q.084.56-.5.616-.42.028-1.26-1.008L9.072,11.22a30.959,30.959,0,0,1-3.15,4.172A23.278,23.278,0,0,1,2.3,18.724Z" transform="translate(-2706 8960)" fill="#fff"/>
      </g>
    </g>
    <rect id="사각형_668" data-name="사각형 668" width="48" height="48" transform="translate(-2717 8949)" fill="none"/>
  </g>
</svg>
